HIERARCHY
ROOT ZeroOut_JNT
{
  OFFSET 0 0 0
  CHANNELS 6 Xposition Yposition Zposition Zrotation Xrotation Yrotation
  JOINT SpineFinal_1_JNT
  {
    OFFSET 0 59.8141 -42.9993
    CHANNELS 6 Xposition Yposition Zposition Zrotation Xrotation Yrotation
    JOINT l_legIKClavicle_Root_JNT
    {
      OFFSET -0.323145 -1.55994 9.59625
      CHANNELS 6 Xposition Yposition Zposition Zrotation Xrotation Yrotation
      JOINT l_legBlendRoot_JNT
      {
        OFFSET 16.1374 0 0
        CHANNELS 6 Xposition Yposition Zposition Zrotation Xrotation Yrotation
        JOINT l_legBlendMiddle_JNT
        {
          OFFSET 27.0969 0 0
          CHANNELS 6 Xposition Yposition Zposition Zrotation Xrotation Yrotation
          JOINT l_legBlendEnd_JNT
          {
            OFFSET 24.8414 0 0
            CHANNELS 6 Xposition Yposition Zposition Zrotation Xrotation Yrotation
            JOINT l_legBlendTip_JNT
            {
              OFFSET 6.77858 0 0
              CHANNELS 6 Xposition Yposition Zposition Zrotation Xrotation Yrotation
              End Site
              {
                OFFSET 0 0 0
              }
            }
          }
        }
      }
    }
    JOINT SpineFinal_2_JNT
    {
      OFFSET -19.5366 0.0587492 -0.00256357
      CHANNELS 6 Xposition Yposition Zposition Zrotation Xrotation Yrotation
      JOINT SpineFinal_3_JNT
      {
        OFFSET -19.4679 1.47333 -0.00136182
        CHANNELS 6 Xposition Yposition Zposition Zrotation Xrotation Yrotation
        JOINT SpineFinal_4_JNT
        {
          OFFSET -18.2335 5.20609 0
          CHANNELS 6 Xposition Yposition Zposition Zrotation Xrotation Yrotation
          JOINT SpineFinal_5_JNT
          {
            OFFSET -17.3574 8.01768 -1.82773e-005
            CHANNELS 6 Xposition Yposition Zposition Zrotation Xrotation Yrotation
            JOINT SpineFinal_6_JNT
            {
              OFFSET -19.144 8.35871 0
              CHANNELS 6 Xposition Yposition Zposition Zrotation Xrotation Yrotation
              JOINT SpineFinal_7_JNT
              {
                OFFSET -16.3943 7.24542 0
                CHANNELS 6 Xposition Yposition Zposition Zrotation Xrotation Yrotation
                JOINT SpineFinal_8_JNT
                {
                  OFFSET -19.3877 2.40349 0
                  CHANNELS 6 Xposition Yposition Zposition Zrotation Xrotation Yrotation
                  JOINT head_JNT
                  {
                    OFFSET -13.796 -11.6756 0
                    CHANNELS 6 Xposition Yposition Zposition Zrotation Xrotation Yrotation
                    JOINT l_hornRoot_JNT
                    {
                      OFFSET -15.825 14.8229 15.3879
                      CHANNELS 6 Xposition Yposition Zposition Zrotation Xrotation Yrotation
                      JOINT l_hornMid_JNT
                      {
                        OFFSET 6.55118 0 0
                        CHANNELS 6 Xposition Yposition Zposition Zrotation Xrotation Yrotation
                        JOINT l_hornEnd_JNT
                        {
                          OFFSET 6.73503 0 0
                          CHANNELS 6 Xposition Yposition Zposition Zrotation Xrotation Yrotation
                          End Site
                          {
                            OFFSET 0 0 0
                          }
                        }
                      }
                    }
                    JOINT headJend_JNT
                    {
                      OFFSET 1.34858 -27.5886 0
                      CHANNELS 6 Xposition Yposition Zposition Zrotation Xrotation Yrotation
                      End Site
                      {
                        OFFSET 0 0 0
                      }
                    }
                    JOINT r_hornRoot_JNT
                    {
                      OFFSET -15.825 14.8229 -15.3879
                      CHANNELS 6 Xposition Yposition Zposition Zrotation Xrotation Yrotation
                      JOINT r_hornMid_JNT
                      {
                        OFFSET -2.40814 5.46468 -2.69372
                        CHANNELS 6 Xposition Yposition Zposition Zrotation Xrotation Yrotation
                        JOINT r_hornEnd_JNT
                        {
                          OFFSET -2.40922 6.0083 -1.85921
                          CHANNELS 6 Xposition Yposition Zposition Zrotation Xrotation Yrotation
                          End Site
                          {
                            OFFSET 0 0 0
                          }
                        }
                      }
                    }
                    JOINT m_upLip_JNT
                    {
                      OFFSET 4.72477 -9.87974 0
                      CHANNELS 6 Xposition Yposition Zposition Zrotation Xrotation Yrotation
                      JOINT l_lipUpRoot_JNT
                      {
                        OFFSET 2.68891 -0.690234 4.02874
                        CHANNELS 6 Xposition Yposition Zposition Zrotation Xrotation Yrotation
                        JOINT l_lipUpEnd_JNT
                        {
                          OFFSET 0 0 -14.9226
                          CHANNELS 6 Xposition Yposition Zposition Zrotation Xrotation Yrotation
                          End Site
                          {
                            OFFSET 0 0 0
                          }
                        }
                      }
                      JOINT m_upLipRoot_JNT
                      {
                        OFFSET 0 0 3.94939
                        CHANNELS 6 Xposition Yposition Zposition Zrotation Xrotation Yrotation
                        JOINT m_upLipEnd_JNT
                        {
                          OFFSET 0 0 15.0019
                          CHANNELS 6 Xposition Yposition Zposition Zrotation Xrotation Yrotation
                          End Site
                          {
                            OFFSET 0 0 0
                          }
                        }
                      }
                      JOINT r_lipUpRoot_JNT
                      {
                        OFFSET -2.689 -0.690236 4.02875
                        CHANNELS 6 Xposition Yposition Zposition Zrotation Xrotation Yrotation
                        JOINT r_lipUpEnd_JNT
                        {
                          OFFSET 9.35075e-005 -0.000392738 14.9226
                          CHANNELS 6 Xposition Yposition Zposition Zrotation Xrotation Yrotation
                          End Site
                          {
                            OFFSET 0 0 0
                          }
                        }
                      }
                    }
                    JOINT m_DnLip_JNT
                    {
                      OFFSET 6.0207 -9.81639 0
                      CHANNELS 6 Xposition Yposition Zposition Zrotation Xrotation Yrotation
                      JOINT l_lipDn_JNT
                      {
                        OFFSET 2.71301 -0.162748 3.99146
                        CHANNELS 6 Xposition Yposition Zposition Zrotation Xrotation Yrotation
                        JOINT l_lipEnd_JNT
                        {
                          OFFSET 0 0 -14.9599
                          CHANNELS 6 Xposition Yposition Zposition Zrotation Xrotation Yrotation
                          End Site
                          {
                            OFFSET 0 0 0
                          }
                        }
                      }
                      JOINT m_dnLip_JNT
                      {
                        OFFSET 0 -0.0431035 3.99141
                        CHANNELS 6 Xposition Yposition Zposition Zrotation Xrotation Yrotation
                        JOINT m_dnLipEnd_JNT
                        {
                          OFFSET 0 0 14.9599
                          CHANNELS 6 Xposition Yposition Zposition Zrotation Xrotation Yrotation
                          End Site
                          {
                            OFFSET 0 0 0
                          }
                        }
                      }
                      JOINT r_lipDn_JNT
                      {
                        OFFSET -2.71301 -0.162761 3.99141
                        CHANNELS 6 Xposition Yposition Zposition Zrotation Xrotation Yrotation
                        JOINT r_lipDnEnd_JNT
                        {
                          OFFSET 0 0 14.9599
                          CHANNELS 6 Xposition Yposition Zposition Zrotation Xrotation Yrotation
                          End Site
                          {
                            OFFSET 0 0 0
                          }
                        }
                      }
                    }
                    JOINT l_lid_JNT
                    {
                      OFFSET -7.85698 -6.72885 9.63956
                      CHANNELS 6 Xposition Yposition Zposition Zrotation Xrotation Yrotation
                      End Site
                      {
                        OFFSET 0 0 0
                      }
                    }
                    JOINT r_lid_JNT
                    {
                      OFFSET -7.85684 -6.72882 -9.63956
                      CHANNELS 6 Xposition Yposition Zposition Zrotation Xrotation Yrotation
                      End Site
                      {
                        OFFSET 0 0 0
                      }
                    }
                  }
                }
              }
            }
            JOINT l_FwClavicleRoot_JNT
            {
              OFFSET -0.15532 -4.55898 6.72563
              CHANNELS 6 Xposition Yposition Zposition Zrotation Xrotation Yrotation
              JOINT l_FwLegBlendRoot_JNT
              {
                OFFSET 21.051 0 0
                CHANNELS 6 Xposition Yposition Zposition Zrotation Xrotation Yrotation
                JOINT l_FwLegBlendMiddle_JNT
                {
                  OFFSET 33.1145 0 0
                  CHANNELS 6 Xposition Yposition Zposition Zrotation Xrotation Yrotation
                  JOINT l_FwLegBlendTip_JNT
                  {
                    OFFSET 29.9221 0 0
                    CHANNELS 6 Xposition Yposition Zposition Zrotation Xrotation Yrotation
                    JOINT l_FwLegBlendEnd_JNT
                    {
                      OFFSET 9.62649 0 0
                      CHANNELS 6 Xposition Yposition Zposition Zrotation Xrotation Yrotation
                      End Site
                      {
                        OFFSET 0 0 0
                      }
                    }
                  }
                }
              }
            }
            JOINT r_FwClavicleRoot_JNT
            {
              OFFSET -0.15532 -4.55898 -6.72563
              CHANNELS 6 Xposition Yposition Zposition Zrotation Xrotation Yrotation
              JOINT r_FwLegBlendRoot_JNT
              {
                OFFSET 1.1653 -12.7157 -16.7361
                CHANNELS 6 Xposition Yposition Zposition Zrotation Xrotation Yrotation
                JOINT r_FwLegBlendMiddle_JNT
                {
                  OFFSET 16.2308 -5.97551 28.2387
                  CHANNELS 6 Xposition Yposition Zposition Zrotation Xrotation Yrotation
                  JOINT r_FwLegBlendTip_JNT
                  {
                    OFFSET 26.7017 -9.19239 -9.89204
                    CHANNELS 6 Xposition Yposition Zposition Zrotation Xrotation Yrotation
                    JOINT r_FwLegBlendEnd_JNT
                    {
                      OFFSET 4.44874 -7.74942 3.58114
                      CHANNELS 6 Xposition Yposition Zposition Zrotation Xrotation Yrotation
                      End Site
                      {
                        OFFSET 0 0 0
                      }
                    }
                  }
                }
              }
            }
          }
        }
      }
    }
    JOINT r_legIKClavicle_Root_JNT
    {
      OFFSET -0.323145 -1.55994 -9.59625
      CHANNELS 6 Xposition Yposition Zposition Zrotation Xrotation Yrotation
      JOINT r_legBlendRoot_JNT
      {
        OFFSET 13.2848 -5.74129 -7.13912
        CHANNELS 6 Xposition Yposition Zposition Zrotation Xrotation Yrotation
        JOINT r_legBlendMiddle_JNT
        {
          OFFSET 14.815 16.9375 15.0957
          CHANNELS 6 Xposition Yposition Zposition Zrotation Xrotation Yrotation
          JOINT r_legBlendEnd_JNT
          {
            OFFSET 23.6904 -6.58016 -3.54465
            CHANNELS 6 Xposition Yposition Zposition Zrotation Xrotation Yrotation
            JOINT r_legBlendTip_JNT
            {
              OFFSET 1.47758 -6.16068 -2.41079
              CHANNELS 6 Xposition Yposition Zposition Zrotation Xrotation Yrotation
              End Site
              {
                OFFSET 0 0 0
              }
            }
          }
        }
      }
    }
    JOINT tailRoot_JNT
    {
      OFFSET 2.82533 14.5514 0
      CHANNELS 6 Xposition Yposition Zposition Zrotation Xrotation Yrotation
      JOINT tailMid_JNT
      {
        OFFSET 7.87756 0 0
        CHANNELS 6 Xposition Yposition Zposition Zrotation Xrotation Yrotation
        JOINT tailEnd_JNT
        {
          OFFSET 6.52588 0 0
          CHANNELS 6 Xposition Yposition Zposition Zrotation Xrotation Yrotation
          End Site
          {
            OFFSET 0 0 0
          }
        }
      }
    }
    JOINT l_shoulderBkRoot_JNT
    {
      OFFSET -9.30511 7.998 11.2048
      CHANNELS 6 Xposition Yposition Zposition Zrotation Xrotation Yrotation
      JOINT l_shoulderBkMid_JNT
      {
        OFFSET 0 0 0
        CHANNELS 6 Xposition Yposition Zposition Zrotation Xrotation Yrotation
        End Site
        {
          OFFSET 0 0 0
        }
      }
    }
    JOINT r_shoulderBkRoot_JNT
    {
      OFFSET -9.30514 7.99801 -11.2048
      CHANNELS 6 Xposition Yposition Zposition Zrotation Xrotation Yrotation
      JOINT r_shoulderBkMid_JNT
      {
        OFFSET 0 0 0
        CHANNELS 6 Xposition Yposition Zposition Zrotation Xrotation Yrotation
        End Site
        {
          OFFSET 0 0 0
        }
      }
    }
  }
}
MOTION
Frames:	3
Frame Time:	0.0416667
0 0 0 0 0 -0 -2.07486 27.248 -42.97 55.4128 6.23526 90.3878 -0.323145 -1.55994 9.59625 -26.4062 61.2999 -67.9538 16.1374 3.5492e-009 1.79325e-006 -18.6898 -18.8521 82.0819 27.0969 0 -4.9738e-014 2.56486e-014 1.68049e-015 -103.857 24.8414 -1.42109e-014 2.13163e-014 -1.92617 30.7188 -39.5905 6.77858 -1.06581e-014 -1.42109e-014 -6.85036e-016 1.00819e-015 -0 -19.4559 0.155841 0.065055 4.25854 41.9561 -5.56695 -17.9344 1.74529 -0.339501 -15.8047 13.3377 0.182065 -15.4734 5.71617 -0.000726101 -2.93852 0.0395382 -0.00737005 -18.6361 -0.46771 0.0050646 35.0073 0.0280685 0.010305 -19.2185 7.148 0.243745 -3.5197 -11.3619 30.1463 -16.3943 7.24542 3.19744e-014 -14.5225 -16.2538 -1.98778e-014 -19.3877 2.40349 -3.19744e-014 9.63929 -18.2858 -1.41413 -13.796 -11.6756 7.4607e-014 -9.51799e-016 -3.97569e-015 -13.4635 -15.825 14.8229 15.3879 112.717 -2.35881 -24.301 6.55118 1.56319e-013 2.84217e-014 -0.362184 -6.73405 17.0623 6.73503 2.84217e-014 -6.39488e-014 -3.18055e-015 1.15544e-015 2.49723e-015 1.34858 -27.5886 -7.10543e-015 92.7985 1.25234e-014 -1.45113e-014 -15.825 14.8229 -15.3879 -0.274809 4.48703 1.892 -2.40814 5.46468 -2.69372 -3.66877 11.611 9.542 -2.40922 6.0083 -1.85921 3.18055e-015 1.59028e-015 -0 4.72477 -9.87974 2.13163e-014 92.7985 3.50417e-015 -90 2.68891 -0.690234 4.02874 -180 7.01671e-015 -180 7.10543e-015 0 -14.9226 5.51627e-015 -3.18055e-015 -6.12505e-015 -7.10543e-015 0 3.94939 7.45443e-017 0 -6.70898e-016 0 0 15.0019 2.60905e-015 -6.36111e-015 -1.08089e-015 -2.689 -0.690236 4.02875 7.45443e-017 0 -6.70898e-016 9.35075e-005 -0.000392738 14.9226 2.60905e-015 -6.36111e-015 -1.08089e-015 6.0207 -9.81639 1.42109e-014 92.7985 3.50417e-015 -90 2.71301 -0.162748 3.99146 -180 7.01671e-015 -180 7.10543e-015 0 -14.9599 5.51627e-015 -3.18055e-015 -6.12505e-015 0 -0.0431035 3.99141 7.45443e-017 0 -6.70898e-016 0 0 14.9599 2.60905e-015 -6.36111e-015 -1.08089e-015 -2.71301 -0.162761 3.99141 7.45443e-017 0 -6.70898e-016 0 0 14.9599 2.60905e-015 -6.36111e-015 -1.08089e-015 -7.85698 -6.72885 9.63956 34.106 19.9417 -161.342 -7.85684 -6.72882 -9.63956 -145.894 19.9417 -161.342 -6.74819 1.62314 4.55472 -27.6089 27.0713 -130.029 21.051 9.96537e-007 7.57641e-007 51.9946 -63.6824 82.6947 33.1145 8.3753e-007 -2.8019e-007 82.0558 7.01671e-015 180 29.9221 4.9738e-014 -1.42109e-014 31.6161 30.6746 -9.18772 9.62649 2.84217e-014 1.06581e-014 29.859 -1.7467e-015 90 -3.2767 -1.28713 -12.5182 -94.9221 19.2845 7.06341 1.16529 -12.7157 -16.7361 -166.807 -59.6955 -75.2933 16.2308 -5.97551 28.2387 145.519 12.6734 139.217 26.7017 -9.19239 -9.89204 92.107 54.4868 -75.2237 4.44874 -7.74942 3.58114 29.859 -1.7467e-015 90 -0.288419 -1.27089 -7.49815 -65.9342 -17.7875 -8.94944 13.2848 -5.74129 -7.13912 11.2631 2.38121 31.4894 14.815 16.9375 15.0957 -46.0635 36.2696 -38.1938 23.6904 -6.58016 -3.54465 17.5672 2.3804 -45.7757 1.47758 -6.16068 -2.41079 3.97569e-016 -7.95139e-016 -6.06293e-015 2.82533 14.5514 1.06581e-014 4.99157 3.66509e-015 34.3462 7.87756 -2.13163e-014 2.13163e-014 19.1217 0 26.8019 6.52588 1.06581e-014 -4.9738e-014 -10.2623 -12.3663 49.7889 -9.30511 7.998 11.2048 -6.8505 -4.18474e-016 -90 0 0 0 6.12894e-015 9.93923e-017 -1.49089e-016 -9.30514 7.99801 -11.2048 173.149 4.18474e-016 -90 0 0 0 -1.21833e-014 9.93923e-017 9.93923e-017 
0 0 0 0 0 -0 -2.07486 27.2482 -42.9699 55.4138 6.23509 90.3879 -0.323145 -1.55994 9.59625 -26.4062 61.2999 -67.9538 16.1374 3.55898e-009 1.79326e-006 -18.6911 -18.8521 82.0816 27.0969 2.13163e-014 -5.15143e-014 -2.56486e-014 -1.68038e-015 -103.856 24.8414 -2.13163e-014 0 -1.92549 30.7192 -39.5911 6.77858 -7.10543e-015 -1.42109e-014 1.45223e-015 8.82501e-016 -3.18055e-015 -19.4559 0.155605 0.0647421 4.2605 41.9577 -5.56869 -17.934 1.74852 -0.338718 -15.8177 13.338 0.18513 -15.4784 5.7194 -0.000726289 -2.93494 0.0395349 -0.00737169 -18.6362 -0.475221 0.00506755 35.0202 0.0280778 0.0103052 -19.2185 7.148 0.243745 -3.5197 -11.3619 30.1463 -16.3943 7.24542 1.59872e-014 -14.5225 -16.2538 -1.32519e-014 -19.3877 2.40349 -4.26326e-014 9.63929 -18.2858 -1.41413 -13.796 -11.6756 6.39488e-014 5.36439e-015 8.74653e-015 -13.4635 -15.825 14.8229 15.3879 112.717 -2.35881 -24.301 6.55118 1.13687e-013 0 -0.362184 -6.73405 17.0623 6.73503 3.55271e-014 -4.9738e-014 -3.18055e-015 1.11816e-015 1.0312e-015 1.34858 -27.5886 -2.13163e-014 92.7985 1.4884e-014 -2.07606e-014 -15.825 14.8229 -15.3879 -0.274809 4.48703 1.892 -2.40814 5.46468 -2.69372 -3.66877 11.611 9.542 -2.40922 6.0083 -1.85921 3.18055e-015 0 -3.18055e-015 4.72477 -9.87974 0 92.7985 3.50417e-015 -90 2.68891 -0.690234 4.02874 180 7.01671e-015 180 0 0 -14.9226 2.33572e-015 3.18055e-015 -6.02566e-015 0 -2.84217e-014 3.94939 -2.50966e-015 3.18055e-015 5.90142e-015 -7.10543e-015 0 15.0019 4.62174e-015 0 1.88845e-015 -2.689 -0.690236 4.02875 -2.50966e-015 3.18055e-015 5.90142e-015 9.35075e-005 -0.000392738 14.9226 4.62174e-015 0 1.88845e-015 6.0207 -9.81639 0 92.7985 3.50417e-015 -90 2.71301 -0.162748 3.99146 180 7.01671e-015 180 0 0 -14.9599 2.33572e-015 3.18055e-015 -6.02566e-015 -1.42109e-014 -0.0431035 3.99141 -2.50966e-015 3.18055e-015 5.90142e-015 0 -1.42109e-014 14.9599 4.62174e-015 0 1.88845e-015 -2.71301 -0.162761 3.99141 -2.50966e-015 3.18055e-015 5.90142e-015 7.10543e-015 0 14.9599 4.62174e-015 0 1.88845e-015 -7.85698 -6.72885 9.63956 34.106 19.9417 -161.342 -7.85684 -6.72882 -9.63956 -145.894 19.9417 -161.342 -6.74791 1.62432 4.55472 -27.613 27.0713 -130.029 21.051 9.9573e-007 7.57429e-007 51.9997 -63.682 82.7086 33.1145 8.3753e-007 -2.8019e-007 82.0639 7.01671e-015 180 29.9221 5.68434e-014 7.10543e-015 31.6295 30.6804 -9.19659 9.62649 4.26326e-014 7.10543e-015 29.859 -1.7467e-015 90 -3.27692 -1.28656 -12.5182 -94.9263 19.2845 7.06341 1.16529 -12.7157 -16.7361 -166.811 -59.6965 -75.2974 16.2308 -5.97551 28.2387 145.517 12.671 139.226 26.7017 -9.19239 -9.89204 92.103 54.4762 -75.2201 4.44874 -7.74942 3.58114 29.859 -1.7467e-015 90 -0.288419 -1.27089 -7.49815 -65.9342 -17.7875 -8.94944 13.2848 -5.74129 -7.13912 11.2641 2.38182 31.4904 14.815 16.9375 15.0957 -46.064 36.2698 -38.1935 23.6904 -6.58016 -3.54465 17.567 2.38071 -45.7761 1.47758 -6.16068 -2.41079 -1.59028e-015 -1.59028e-015 -5.46658e-016 2.82533 14.5514 1.77636e-014 4.99157 -2.24875e-015 34.3462 7.87756 -1.42109e-014 1.42109e-014 19.1217 9.54166e-015 26.8019 6.52588 1.77636e-014 -2.84217e-014 -10.2623 -12.3663 49.7889 -9.30511 7.998 11.2048 -6.8505 -4.18474e-016 -90 0 0 0 -7.45365e-015 9.93923e-017 -4.96962e-017 -9.30514 7.99801 -11.2048 173.149 4.18474e-016 -90 0 0 0 -9.09983e-015 -9.93923e-017 4.96962e-017 
0 0 0 0 0 -0 -2.07486 27.2485 -42.9699 55.4163 6.23462 90.3883 -0.323145 -1.55994 9.59625 -26.4062 61.2999 -67.9538 16.1374 3.57198e-009 1.79327e-006 -18.6946 -18.8524 82.0811 27.0969 -7.10543e-015 -5.50671e-014 -2.04108e-016 -1.68008e-015 -103.853 24.8414 0 1.42109e-014 -1.9237 30.7204 -39.5928 6.77858 -3.55271e-015 -7.10543e-015 -8.47144e-016 -6.05944e-015 3.18055e-015 -19.4558 0.155277 0.0643059 4.26324 41.9599 -5.5711 -17.9333 1.75319 -0.337588 -15.8525 13.3386 0.193325 -15.4857 5.7242 -0.000726583 -2.9259 0.0395259 -0.00737541 -18.6363 -0.485837 0.00507216 35.0543 0.0281032 0.0103065 -19.2185 7.148 0.243745 -3.5197 -11.3619 30.1463 -16.3943 7.24542 2.13163e-014 -14.5225 -16.2538 -2.31908e-014 -19.3877 2.40349 -3.90799e-014 9.63929 -18.2858 -1.41413 -13.796 -11.6756 5.32907e-014 -2.28432e-015 -9.54166e-015 -13.4635 -15.825 14.8229 15.3879 112.717 -2.35881 -24.301 6.55118 1.35003e-013 7.10543e-015 -0.362184 -6.73405 17.0623 6.73503 2.13163e-014 -4.26326e-014 -3.18055e-015 5.37961e-015 3.49116e-015 1.34858 -27.5886 -1.42109e-014 92.7985 1.00635e-014 -2.60408e-014 -15.825 14.8229 -15.3879 -0.274809 4.48703 1.892 -2.40814 5.46468 -2.69372 -3.66877 11.611 9.542 -2.40922 6.0083 -1.85921 -4.41391e-032 7.95139e-016 3.18055e-015 4.72477 -9.87974 7.10543e-015 92.7985 3.50417e-015 -90 2.68891 -0.690234 4.02874 180 7.01671e-015 180 0 0 -14.9226 3.03147e-015 9.54166e-015 -4.9075e-015 -1.42109e-014 0 3.94939 -5.2181e-016 3.18055e-015 4.50993e-015 0 1.42109e-014 15.0019 -2.21148e-015 6.36111e-015 -6.05051e-015 -2.689 -0.690236 4.02875 -5.2181e-016 3.18055e-015 4.50993e-015 9.35075e-005 -0.000392738 14.9226 -2.21148e-015 6.36111e-015 -6.05051e-015 6.0207 -9.81639 7.10543e-015 92.7985 3.50417e-015 -90 2.71301 -0.162748 3.99146 180 7.01671e-015 180 7.10543e-015 0 -14.9599 3.03147e-015 9.54166e-015 -4.9075e-015 -7.10543e-015 -0.0431035 3.99141 -5.2181e-016 3.18055e-015 4.50993e-015 7.10543e-015 0 14.9599 -2.21148e-015 6.36111e-015 -6.05051e-015 -2.71301 -0.162761 3.99141 -5.2181e-016 3.18055e-015 4.50993e-015 -7.10543e-015 1.42109e-014 14.9599 -2.21148e-015 6.36111e-015 -6.05051e-015 -7.85698 -6.72885 9.63956 34.106 19.9417 -161.342 -7.85684 -6.72882 -9.63956 -145.894 19.9417 -161.342 -6.74756 1.62577 4.55472 -27.623 27.0713 -130.029 21.051 9.94528e-007 7.57114e-007 52.0137 -63.6808 82.7467 33.1145 8.3753e-007 -2.8019e-007 82.0861 -7.01671e-015 180 29.9221 5.68434e-014 -2.84217e-014 31.666 30.6962 -9.22085 9.62649 1.42109e-014 7.10543e-015 29.859 -1.7467e-015 90 -3.2772 -1.28585 -12.5182 -94.9362 19.2845 7.06341 1.16529 -12.7157 -16.7361 -166.823 -59.6995 -75.3085 16.2308 -5.97551 28.2387 145.512 12.6646 139.252 26.7017 -9.19239 -9.89204 92.092 54.4471 -75.2102 4.44874 -7.74942 3.58114 29.859 -1.7467e-015 90 -0.288419 -1.27089 -7.49815 -65.9342 -17.7875 -8.94944 13.2848 -5.74129 -7.13912 11.2664 2.38342 31.4931 14.815 16.9375 15.0957 -46.0654 36.2705 -38.1926 23.6904 -6.58016 -3.54465 17.5665 2.38152 -45.7771 1.47758 -6.16068 -2.41079 -3.97569e-016 7.95139e-016 8.39865e-015 2.82533 14.5514 0 4.99157 -4.84538e-015 34.3462 7.87756 -2.13163e-014 2.13163e-014 19.1217 -3.18055e-015 26.8019 6.52588 3.55271e-015 -1.42109e-014 -10.2623 -12.3663 49.7889 -9.30511 7.998 11.2048 -6.8505 -4.18474e-016 -90 0 0 0 9.51992e-016 0 9.93923e-017 -9.30514 7.99801 -11.2048 173.149 4.18474e-016 -90 0 0 0 -1.80459e-015 -1.98785e-016 -4.96962e-017 
